<svg id="Layer_1" data-name="Layer 1" xmlns="http://www.w3.org/2000/svg" viewBox="0 0 900.37 546.5"><defs><style>.cls-1{fill:#fefefe;}.cls-2{fill:#575659;}</style></defs><title>Salon Haze</title><path class="cls-1" d="M-80.44-149.5q-270.4,0-540.8-.1c-3.9,0-4.78.88-4.78,4.78q.16,270.39.1,540.8c-.24-.17-.81.39-.79-.39,0-1,0-2.08,0-3.12q0-269.63-.07-539.25c0-2.92.65-3.58,3.58-3.58q269.63.12,539.24.12C-82.8-150.24-81.3-151.13-80.44-149.5Z" transform="translate(626.77 150.48)"/><path class="cls-2" d="M70,207q0-49.17-.07-98.34c0-2.78.69-3.53,3.51-3.53q98.51.12,197,0c2.52,0,3.19.68,3.19,3.18q-.11,98.66,0,197.31c0,2.47-.61,3.22-3.15,3.21q-98.66-.1-197.32,0c-2.84,0-3.2-1-3.19-3.5Q70,256.16,70,207ZM172.7,253.53l.21.21c-2,4.1-4.95,7.57-7.64,11.19-7.93,10.69-15.82,21.43-26.89,29.22-7.16,5-14.95,7.33-23.65,5.16-7.73-1.94-15.53-7.5-14.53-18.94a43,43,0,0,1,2.66-12c5.21-13.4,17.85-22.7,30.5-23.29s17.06,11.12,13.45,19.25a38.37,38.37,0,0,1-10.88,14.19c-.85.7-2.05,1.12-2.19,2.48,1.17.87,1.81-.15,2.49-.66a38.08,38.08,0,0,0,12-14.52,16.42,16.42,0,0,0-3.78-19.16c-4.64-4-10.22-3.79-15.67-2.8-16.38,3-28.09,18.32-30.08,34-.69,5.41-.46,10.81,3.27,15.37,6.38,7.81,14.85,10.11,24.43,8.92,14.6-1.82,26.69-9,37.38-18.62A96.83,96.83,0,0,0,185,255.77c.65-1.26,1.22-2.36,3-2.33,5.5.1,11,.05,16.5.07.59,0,1.35-.27,1.7.44s-.31,1.15-.71,1.6a105.57,105.57,0,0,0-11.6,16.18c-3.82,6.34-7.56,12.74-9.26,20-1.17,5,1.61,8.35,6.75,8.15,4.27-.17,7.88-2.3,11.36-4.47,9.27-5.79,17.37-13.06,25.46-20.33.42-.37,1.12-.78.47-1.58-1.44-.17-2.32.8-3.24,1.63a202.32,202.32,0,0,1-22.56,17.9c-3.07,2.06-6.19,4.14-9.87,4.94-4.3.92-6.53-1.65-5.1-5.8a23.23,23.23,0,0,1,1.68-3.74c5.74-10.39,13.07-19.67,20.15-29.15,3.27-4.37,6.82-6.94,12.4-5.85a3,3,0,0,0,.95,0c.63-.08,1.42-.22,1.42-.95s-.85-.76-1.46-.76c-2,0-4.06,0-6.44,0,2.6-4,5.74-6.73,8.46-9.8,12.88-14.48,26.46-28.17,43.32-38.14.67-.39,1.89-.68,1.25-1.75-.49-.83-1.29-.09-1.92.27a157.94,157.94,0,0,0-16.83,11.24c-14.69,11-27.91,23.57-40.57,36.79a4.07,4.07,0,0,1-3.27,1.42c-4.65-.07-9.31,0-14,0-6,0-6.1-.06-3.07-5.35,7.8-13.64,17.42-25.65,30.85-34.26,1.05-.68,3.69-.81,2.74-2.52-.61-1.12-2.61.61-3.74,1.35a152.27,152.27,0,0,1-45.63,19.94c-10.12,2.64-20.33,3.91-30.65,1.24-9.65-2.49-12.06-11.19-5.16-18.32a25.55,25.55,0,0,1,9.25-6c11.16-4.38,22.69-5.32,34.54-4,2.61.3,5.32,1.59,8.17.56a1.92,1.92,0,0,0-1.66-1.4c-10.17-1.79-20.36-2.11-30.51,0-7.7,1.63-15.22,3.81-21,9.64s-7.25,16.51,4,20.52a37.28,37.28,0,0,0,11.49,2c14.59.41,28.07-4.13,41.42-9.24,1.61-.61,3.09-1.75,5.12-1.38a4.16,4.16,0,0,1-.49,1,205.51,205.51,0,0,0-22.89,24.94c-1,1.24-2.09,1.12-3.34,1.25-1.47.16-4.24-.71-4.15.65C168.55,254.51,171.21,253,172.7,253.53Z" transform="translate(626.77 150.48)"/><path d="M46.49,237.69c0,7.91-5.37,13.38-13.21,13.4A13.05,13.05,0,0,1,20,238a13.34,13.34,0,0,1,13.16-13.4A13.1,13.1,0,0,1,46.49,237.69Zm-23.6,0a10.73,10.73,0,0,0,10.62,10.69A10.87,10.87,0,0,0,43.9,238.11a10.53,10.53,0,0,0-10.34-10.56A10.4,10.4,0,0,0,22.89,237.73Z" transform="translate(626.77 150.48)"/><path d="M38.37,202.85c-5,0-10.09,0-15.13,0-1,0-2.57.62-2.56-1.35,0-1.79,1.44-1.53,2.54-1.54q10.14,0,20.27,0c.76,0,1.89-.43,2.15.69.22,1-.83,1.37-1.44,1.91-4.74,4.17-9.51,8.32-14.25,12.51-.43.38-1.09.71-.81,1.9,4.61,0,9.31,0,14,0,1.14,0,2.78-.53,2.67,1.61-.1,1.92-1.62,1.3-2.63,1.31-6.55.06-13.09,0-19.64,0-.78,0-1.9.45-2.22-.61s.86-1.32,1.45-1.85q7.92-7,15.87-13.93Z" transform="translate(626.77 150.48)"/><path d="M33.47,166.82q5.22,0,10.46,0c1,0,1.9.1,1.92,1.47s-.8,1.51-1.86,1.51c-2.65,0-5.29,0-7.93,0-1.54,0-2.35.35-2.28,2.1.11,2.64.1,5.29,0,7.93-.07,1.68.6,2.24,2.21,2.19,2.64-.09,5.29,0,7.93,0,1,0,1.91.06,1.93,1.44S45,184.94,44,184.94H22.43c-1.07,0-1.87-.21-1.81-1.57s1-1.41,2-1.41c2,0,4-.06,6,0,1.83.08,2.75-.52,2.66-2.52a68,68,0,0,1,0-7.28c.13-2.07-.79-2.52-2.61-2.42-2.11.11-4.23,0-6.34,0-.89,0-1.68-.12-1.73-1.32s.65-1.64,1.76-1.64C26.07,166.83,29.77,166.82,33.47,166.82Z" transform="translate(626.77 150.48)"/><path d="M33.22,119c-3.48,0-7-.06-10.45,0-1.66,0-2.23-.6-2.19-2.23.09-3.48,0-7,0-10.45,0-1,.1-1.9,1.48-1.87s1.43,1,1.43,2c0,2.42.09,4.85,0,7.28-.14,3.11,2.12,2.24,3.72,2.27s3.82.7,3.67-2.35c-.13-2.42,0-4.86,0-7.29,0-1.1.22-1.87,1.54-1.81s1.3.87,1.31,1.76c0,2.53.06,5.07,0,7.6,0,1.43.42,2.23,2,2.12H36c6.77.41,6.78.41,7.15-8A12,12,0,0,0,43,106.2c-.11-1,.19-1.63,1.34-1.63s1.52.47,1.52,1.53q0,5.7,0,11.4c0,1.61-1.1,1.52-2.18,1.52Z" transform="translate(626.77 150.48)"/><path d="M45.85,140.63A2,2,0,0,1,44.11,143c-6,1.43-7.31,5.43-6.58,11,.24,1.81.67,2.9,2.34,3.56s3.26,1.47,4.89,2.2a2.06,2.06,0,0,1,.94,3c-.59,1.25-1.43,0-2.05-.32q-10.21-4.66-20.36-9.47c-.79-.38-2.08-.6-2.08-1.7s1.28-1.24,2.1-1.63c6.67-3.14,13.34-6.29,20-9.35C44.13,139.85,45.45,138.44,45.85,140.63Zm-19.11,10.5c1.41.71,2.32,1.24,3.29,1.64,1.51.63,3.2,2.49,4.5,1.55s.38-3.33.52-5.07c.13-1.53-.61-1.9-1.93-1.27Z" transform="translate(626.77 150.48)"/><path d="M44.75,270c.63-.21,1,0,1.09.68.07,1,.12,1.91-1,2.43-1.71.8-3.37,1.76-5.12,2.47-1.58.65-2.4,1.59-2.13,3.35a4.1,4.1,0,0,1,0,1.26c-.94,5,.94,8.21,5.93,9.54a4.36,4.36,0,0,1,1.91,1.07,2,2,0,0,1,.2,2.36c-.43.76-1.12.23-1.65,0L22,282.76c-1.81-.86-1.26-1.58.15-2.24l22-10.3Zm-9.68,11.85c0-3.72,0-3.72-.9-3.77-.68-.05-6.55,3.08-6.6,3.52s5.29,3.83,6.37,3.6C36.19,284.69,34.44,282.72,35.07,281.82Z" transform="translate(626.77 150.48)"/><path d="M46.48,302.86c0,3.85-1.29,6.11-3.78,7.71-.82.53-1.6,1-2.4-.18s0-1.58.76-2.22c2.82-2.34,3.49-4.76,2-6.74s-4.52-2.32-6.65-.19a54.06,54.06,0,0,0-4.59,5.62,6.77,6.77,0,0,1-6.88,2.9,5.38,5.38,0,0,1-4.61-4.59,6.85,6.85,0,0,1,2.49-7c.56-.48,1.13-1.59,2-.55.63.72,1.13,1.6.3,2.55-.28.31-.64.56-.9.88-1.27,1.65-1.95,3.34-.11,5s3.47.85,4.88-.72c2-2.2,3.82-4.5,5.85-6.63a6.36,6.36,0,0,1,7.52-1.55A6.48,6.48,0,0,1,46.48,302.86Z" transform="translate(626.77 150.48)"/><path d="M45.86,137.78c-6.31-3-12.11-5.66-17.89-8.4-4.44-2.1-4.32-2.12-4.51,2.81-.05,1.51,1.26,4.29-1.36,4.33s-1.25-2.76-1.42-4.26c-.24-2.19,0-4.43-.08-6.64-.05-2,.7-2.4,2.48-1.56,5.43,2.54,10.9,5,16.35,7.51,3.28,1.52,3.45,1.42,3.49-2.22,0-1.26,0-2.53,0-3.8,0-1,.21-1.92,1.54-1.93s1.35,1,1.36,2Z" transform="translate(626.77 150.48)"/><path d="M33.2,266.17c-3,0-5.92.15-8.86-.06-1.27-.09-3.66,1.24-3.62-1.5,0-2.42,2.23-1.34,3.46-1.36,5.48-.12,11-.13,16.46,0,2.06.05,2.88-.56,2.71-2.67-.15-1.78,0-3.59,0-5.38,0-.83.24-1.44,1.23-1.45s1.29.53,1.29,1.39c0,3.17,0,6.33,0,9.5,0,1.59-1.13,1.53-2.2,1.53Z" transform="translate(626.77 150.48)"/><path d="M172.7,253.53c-1.49-.51-4.15,1-4.29-1.12-.09-1.36,2.68-.49,4.15-.65,1.25-.13,2.38,0,3.34-1.25a205.51,205.51,0,0,1,22.89-24.94,4.16,4.16,0,0,0,.49-1c-2-.37-3.51.77-5.12,1.38-13.35,5.11-26.83,9.65-41.42,9.24a37.28,37.28,0,0,1-11.49-2c-11.29-4-9.76-14.75-4-20.52s13.29-8,21-9.64c10.15-2.14,20.34-1.82,30.51,0a1.92,1.92,0,0,1,1.66,1.4c-2.85,1-5.56-.26-8.17-.56-11.85-1.32-23.38-.38-34.54,4a25.55,25.55,0,0,0-9.25,6c-6.9,7.13-4.49,15.83,5.16,18.32,10.32,2.67,20.53,1.4,30.65-1.24a152.27,152.27,0,0,0,45.63-19.94c1.13-.74,3.13-2.47,3.74-1.35.95,1.71-1.69,1.84-2.74,2.52-13.43,8.61-23,20.62-30.85,34.26-3,5.29-2.93,5.35,3.07,5.35,4.65,0,9.31,0,14,0a4.07,4.07,0,0,0,3.27-1.42c12.66-13.22,25.88-25.83,40.57-36.79A157.94,157.94,0,0,1,267.7,202.3c.63-.36,1.43-1.1,1.92-.27.64,1.07-.58,1.36-1.25,1.75-16.86,10-30.44,23.66-43.32,38.14-2.72,3.07-5.86,5.78-8.46,9.8,2.38,0,4.41,0,6.44,0,.61,0,1.46-.11,1.46.76s-.79.87-1.42.95a3,3,0,0,1-.95,0c-5.58-1.09-9.13,1.48-12.4,5.85-7.08,9.48-14.41,18.76-20.15,29.15a23.23,23.23,0,0,0-1.68,3.74c-1.43,4.15.8,6.72,5.1,5.8,3.68-.8,6.8-2.88,9.87-4.94a202.32,202.32,0,0,0,22.56-17.9c.92-.83,1.8-1.8,3.24-1.63.65.8,0,1.21-.47,1.58-8.09,7.27-16.19,14.54-25.46,20.33-3.48,2.17-7.09,4.3-11.36,4.47-5.14.2-7.92-3.13-6.75-8.15,1.7-7.3,5.44-13.7,9.26-20a105.57,105.57,0,0,1,11.6-16.18c.4-.45,1.07-.88.71-1.6s-1.11-.44-1.7-.44c-5.5,0-11,0-16.5-.07-1.76,0-2.33,1.07-3,2.33a96.83,96.83,0,0,1-21.24,27.8c-10.69,9.66-22.78,16.8-37.38,18.62-9.58,1.19-18-1.11-24.43-8.92-3.73-4.56-4-10-3.27-15.37,2-15.7,13.7-31.06,30.08-34,5.45-1,11-1.21,15.67,2.8a16.42,16.42,0,0,1,3.78,19.16,38.08,38.08,0,0,1-12,14.52c-.68.51-1.32,1.53-2.49.66.14-1.36,1.34-1.78,2.19-2.48a38.37,38.37,0,0,0,10.88-14.19c3.61-8.13-.89-19.84-13.45-19.25s-25.29,9.89-30.5,23.29a43,43,0,0,0-2.66,12c-1,11.44,6.8,17,14.53,18.94,8.7,2.17,16.49-.12,23.65-5.16,11.07-7.79,19-18.53,26.89-29.22,2.69-3.62,5.63-7.09,7.64-11.19l.21-.42Z" transform="translate(626.77 150.48)"/><path class="cls-2" d="M172.7,253.53l.42-.21-.21.42Z" transform="translate(626.77 150.48)"/></svg>